<svg enable-background="new 0 0 512 512" viewBox="0 0 512 512" xmlns="http://www.w3.org/2000/svg"><g fill="#11b24c"><path d="m365.6 285.9h-325.3v133.9h276.3zm-222.7 97.8c-4.4 3.4-10.2 5-17.4 5-6.9 0-12.9-1.8-18.1-5.5-5.1-3.7-7.6-8.9-7.5-15.6l.1-.3h10.9c0 4.1 1.4 7.2 4.2 9.2 2.8 2.1 6.3 3.1 10.3 3.1s7.1-.8 9.4-2.5c2.2-1.7 3.3-4 3.3-6.9 0-2.8-1-5.2-3-7s-5.6-3.4-10.7-4.9c-7.3-2-13-4.7-16.9-8-4-3.3-6-7.6-6-12.9 0-5.5 2.2-10 6.5-13.6 4.4-3.6 10-5.3 16.8-5.3 7.4 0 13.2 2 17.6 5.9s6.5 8.8 6.4 14.6l-.1.3h-10.9c0-3.6-1.2-6.4-3.6-8.6-2.4-2.1-5.6-3.2-9.5-3.2-3.8 0-6.8.9-8.9 2.7s-3.1 4.1-3.1 7c0 2.6 1.1 4.8 3.4 6.5s6 3.3 11.3 4.8c7.1 2 12.6 4.7 16.3 8.2 3.7 3.4 5.6 7.8 5.6 13.2.2 5.9-2 10.4-6.4 13.8zm49.7 4.1h-10.8l-24.3-68h12.1l16.2 49.6 1.2 5h.3l1.2-4.9 16.3-49.7h12.1zm84.8-9.2c-1.9 2.6-4.9 5-8.9 7.1-4.1 2.1-9.4 3.1-15.9 3.1-8 0-14.6-2.6-19.8-7.8s-7.8-11.9-7.8-20.1v-14.2c0-8.2 2.5-14.9 7.5-20.1s11.5-7.8 19.3-7.8c7.9 0 14.1 2 18.5 6s6.6 9.2 6.4 15.6l-.1.3h-10.8c0-3.8-1.2-6.9-3.6-9.3s-5.8-3.5-10.3-3.5c-4.7 0-8.5 1.8-11.4 5.3s-4.3 8-4.3 13.4v14.3c0 5.5 1.5 10 4.5 13.5s6.9 5.3 11.8 5.3c3.6 0 6.5-.4 8.6-1.2s3.7-1.8 4.8-3v-14.1h-14.3v-8.5h25.6v25.7z"/><path d="m352.9 6h-245.5c-7.3 0-13.3 6-13.3 13.3v256.8h26.6v-243.5h232.2v92.2h92.2v354.6h-324.4v-49.8h-26.6v63.1c0 7.3 6 13.3 13.3 13.3h351c7.3 0 13.3-6 13.3-13.3v-367.9z"/><path d="m156.2 171.4h253.4v19.6h-253.4z"/><path d="m156.2 209.5h213.3v19.6h-213.3z"/></g></svg>